# xmcd
# 
# Track frame offsets:
#   150
#   16400
#   28921
#   45720
#   66117
#   80718
#   100771
#   118396
#   140438
#   156138
#   172714
#   188656
#   201857
#   218679
#   230119
# 
# Disc length: 3289 seconds
# 
# Revision: 4
# Processed by: cddbd v1.5.2PL0 Copyright (c) Steve Scherf et al.
# Submitted via: Synapstar 1.0 
# 
DISCID=d00cd70f
DTITLE=Various Artist - CB60344
DYEAR=2005
DGENRE=Country
TTITLE0=Jackson, Alan - USA Today
TTITLE1=Shelton, Blake - Nobody But Me
TTITLE2=Wilson, Gretchen - All Jacked Up
TTITLE3=Bentley, Dierks - Come A Little Closer
TTITLE4=Nichols, Joe - Tequila Makes Her Clothes Fall Off
TTITLE5=Hill, Faith - Like We Never Loved At All
TTITLE6=Anderson, Keith - XXL
TTITLE7=Urban, Keith - Better Life
TTITLE8=McBride, Martina - Rose Garden, (I Never Promised You A)
TTITLE9=Worley, Darryl - I Love Her She Hates Me
TTITLE10=Holy, Steve - It's My Time (Waste It If I Want To)
TTITLE11=Lynne, Shelby - I Won't Die Alone
TTITLE12=Turner, Josh - Your Man
TTITLE13=Black, Clint - Rainbow In The Rain
TTITLE14=Loveless, Patty - Keep Your Distance
EXTD=
EXTT0=
EXTT1=
EXTT2=
EXTT3=
EXTT4=
EXTT5=
EXTT6=
EXTT7=
EXTT8=
EXTT9=
EXTT10=
EXTT11=
EXTT12=
EXTT13=
EXTT14=
PLAYORDER=
